<svg width="13" height="12" viewBox="0 0 13 12" fill="none" xmlns="http://www.w3.org/2000/svg">
<path d="M12.4735 5.49458C12.5694 6.63643 12.3244 7.78106 11.7693 8.78353C11.2143 9.786 10.3742 10.6012 9.35551 11.1259C8.33682 11.6506 7.18533 11.8611 6.04688 11.7309C4.90843 11.6007 3.83424 11.1355 2.96034 10.3943C2.08645 9.65317 1.45218 8.66933 1.13784 7.56742C0.823511 6.4655 0.843263 5.29509 1.1946 4.20441C1.54594 3.11374 2.21306 2.15186 3.11147 1.4406C4.00987 0.729342 5.09915 0.300704 6.24135 0.20897C6.99765 0.146645 7.75882 0.233937 8.48137 0.465862C9.20393 0.697787 9.87371 1.0698 10.4524 1.56064C11.0312 2.05149 11.5076 2.65155 11.8543 3.32655C12.2011 4.00155 12.4115 4.73825 12.4735 5.49458Z" fill="#5BFF6F"/>
<path d="M11.101 5.60302C11.0933 5.58055 11.0883 5.5573 11.0859 5.53369C11.0788 5.48245 11.0683 5.41312 11.0542 5.3257C11.0542 5.28049 11.0407 5.22925 11.0316 5.17499C11.0226 5.12073 11.0045 5.06045 10.9894 4.99564C10.957 4.84204 10.9137 4.69095 10.8598 4.54349C10.7229 4.14295 10.5263 3.76541 10.2765 3.42367C9.91447 2.91995 9.45004 2.49843 8.91369 2.18674C8.37733 1.87506 7.78116 1.68025 7.16424 1.61508C6.38741 1.53647 5.60363 1.66545 4.89295 1.98885C4.70408 2.07705 4.52131 2.17775 4.34585 2.29028C4.25843 2.34756 4.17554 2.41236 4.08812 2.47265C4.00023 2.53357 3.9171 2.60109 3.83944 2.67461C3.67674 2.81539 3.5232 2.96641 3.37975 3.12676C3.23919 3.29671 3.11029 3.47596 2.99392 3.66331C2.75246 4.0473 2.57435 4.46765 2.46641 4.90822C2.35865 5.36202 2.32003 5.82948 2.35187 6.29481C2.39347 6.76139 2.50631 7.21885 2.68646 7.65125C2.86196 8.06975 3.10482 8.45669 3.40538 8.7967C3.54998 8.96365 3.70611 9.12028 3.8726 9.26542C4.03987 9.40306 4.21609 9.52943 4.40011 9.64372C4.57938 9.75775 4.76677 9.8585 4.96077 9.94515C5.1518 10.0264 5.34819 10.0944 5.54856 10.1486C6.52686 10.4174 7.56804 10.339 8.4951 9.92686C9.42215 9.51472 10.1779 8.79423 10.6337 7.88788C10.8268 7.50865 10.9605 7.10199 11.0301 6.68215C11.0607 6.53312 11.0799 6.38196 11.0874 6.23C11.0874 6.16369 11.0994 6.10189 11.101 6.04613C11.1025 5.99036 11.101 5.93761 11.101 5.89541C11.101 5.80649 11.101 5.73716 11.101 5.68592C11.0986 5.66186 11.0986 5.63763 11.101 5.61357C11.1026 5.63716 11.1026 5.66082 11.101 5.68441C11.101 5.73716 11.101 5.80649 11.1115 5.8939C11.1115 5.94063 11.1115 5.99187 11.119 6.04462C11.1266 6.09737 11.119 6.16369 11.1085 6.23151C11.104 6.38673 11.0878 6.54139 11.0603 6.69421C10.995 7.11659 10.8648 7.52634 10.6744 7.90898C10.3978 8.47408 10.0041 8.97384 9.51948 9.37506C9.03485 9.77629 8.47037 10.0698 7.86357 10.236C6.88678 10.4956 5.85145 10.4235 4.92007 10.0311C4.72237 9.94406 4.531 9.84334 4.34735 9.72963C3.96303 9.4997 3.6193 9.20791 3.33002 8.86602C3.02414 8.51838 2.77584 8.12405 2.59452 7.69798C2.21471 6.81205 2.13841 5.82543 2.37749 4.89164C2.48665 4.44147 2.66893 4.01226 2.91705 3.62111C3.03558 3.42963 3.16754 3.24681 3.31193 3.07401C3.45799 2.90834 3.61509 2.75274 3.78217 2.60829C3.86134 2.53376 3.94598 2.46524 4.03537 2.40332C4.12429 2.34153 4.20869 2.27521 4.29912 2.21794C4.47791 2.10396 4.66479 2.00321 4.85828 1.91651C5.5825 1.58849 6.38122 1.45997 7.17178 1.54424C7.79752 1.6115 8.40177 1.81119 8.94437 2.13005C9.48697 2.4489 9.95547 2.8796 10.3187 3.39352C10.5679 3.74084 10.7616 4.12471 10.893 4.53143C10.9457 4.67864 10.9865 4.82984 11.015 4.98358C11.0301 5.04839 11.0452 5.11018 11.0557 5.16595C11.0663 5.22171 11.0678 5.27295 11.0723 5.31666C11.0829 5.40408 11.0904 5.46738 11.0964 5.52465C11.1004 5.55057 11.1019 5.57681 11.101 5.60302Z" fill="#263238"/>
<g opacity="0.3">
<path d="M11.0692 5.653C11.0436 5.653 11.0089 5.4646 10.9185 5.13303C10.7825 4.66947 10.5767 4.22935 10.3081 3.82783C10.1221 3.55445 9.90739 3.30181 9.66754 3.07425C9.39113 2.81772 9.08321 2.59741 8.75118 2.41863C8.38568 2.22268 7.99379 2.08055 7.58765 1.99663C7.37349 1.95312 7.15634 1.92591 6.93806 1.91524C6.71325 1.90631 6.48807 1.91386 6.26436 1.93785C6.04098 1.96361 5.81982 2.00592 5.60271 2.06445C5.3922 2.12406 5.1862 2.1986 4.98628 2.28751C4.79328 2.37324 4.60733 2.47403 4.43014 2.58894C4.25928 2.69792 4.09703 2.81986 3.94483 2.95367C3.65806 3.20053 3.40473 3.48376 3.19125 3.79618C3.00926 4.07082 2.85765 4.36443 2.7391 4.67184C2.5677 5.12303 2.46605 5.59771 2.43767 6.07952C2.41657 6.42316 2.42562 6.61758 2.39849 6.62059C2.37136 6.62361 2.32614 6.4322 2.30655 6.07802C2.28643 5.57264 2.35948 5.06787 2.52207 4.58894C2.76277 3.87167 3.18426 3.22853 3.74589 2.72157C3.9069 2.57414 4.07925 2.43959 4.26134 2.31916C4.4506 2.19202 4.64967 2.08014 4.85667 1.98457C5.07068 1.8848 5.29246 1.80264 5.51982 1.7389C5.75375 1.67499 5.992 1.62815 6.23271 1.59874C6.47451 1.57373 6.71783 1.56667 6.96067 1.57764C7.19639 1.59018 7.43073 1.62142 7.6615 1.67108C7.88395 1.71807 8.10221 1.7831 8.31411 1.8655C8.51865 1.94254 8.71671 2.03578 8.90642 2.14433C9.56722 2.51345 10.1208 3.04785 10.5131 3.6952C10.7771 4.12587 10.9595 4.60155 11.0511 5.09836C11.0993 5.45405 11.0888 5.64546 11.0692 5.653Z" fill="black"/>
</g>
<g opacity="0.3">
<path d="M7.40963 8.53453L7.48348 9.29866L6.79923 9.36196L6.7299 8.61893C6.04866 8.64305 5.37345 8.49233 4.97707 8.2346L5.2785 7.36648C5.69605 7.60371 6.16828 7.72787 6.64851 7.72669L6.5415 6.58728C5.76531 6.47424 4.89417 6.30243 4.80223 5.32729C4.7329 4.60386 5.20013 3.93468 6.2672 3.71011L6.19636 2.95653L6.87911 2.89172L6.94994 3.63626C7.44105 3.61697 7.92972 3.7146 8.37572 3.92111L8.11347 4.79225C7.7745 4.6356 7.40756 4.54848 7.03434 4.53603L7.14437 5.69504C7.92056 5.80054 8.77813 5.97387 8.86856 6.93543C8.93186 7.64078 8.47067 8.30394 7.40963 8.53453ZM6.44203 5.58502L6.34859 4.61591C5.9944 4.73197 5.87081 4.94447 5.89644 5.16904C5.92206 5.39361 6.13155 5.5172 6.44203 5.58502ZM7.77285 7.1178C7.75025 6.87816 7.53924 6.76814 7.2363 6.69278L7.32522 7.63476C7.65982 7.52624 7.79245 7.33483 7.77285 7.1178Z" fill="black"/>
</g>
</svg>
