<svg width="36" height="36" viewBox="0 0 28 28" fill="none" xmlns="http://www.w3.org/2000/svg">
<path d="M27.9508 12.8298C28.1829 15.5912 27.5902 18.3593 26.2479 20.7837C24.9056 23.208 22.874 25.1795 20.4104 26.4483C17.9469 27.7172 15.1621 28.2264 12.4089 27.9115C9.65574 27.5966 7.05794 26.4717 4.94454 24.6792C2.83114 22.8868 1.29723 20.5075 0.537053 17.8427C-0.22312 15.1778 -0.175353 12.3473 0.674315 9.70967C1.52398 7.072 3.13733 4.74582 5.31001 3.02574C7.48269 1.30565 10.117 0.269045 12.8792 0.0471999C14.7082 -0.103527 16.549 0.10758 18.2964 0.66846C20.0438 1.22934 21.6636 2.129 23.0632 3.31605C24.4629 4.5031 25.6149 5.95428 26.4535 7.58667C27.2921 9.21907 27.8009 11.0007 27.9508 12.8298Z" fill="#5BFF6F"/>
<path d="M24.6317 13.092C24.6133 13.0377 24.6011 12.9815 24.5953 12.9244C24.5783 12.8005 24.5528 12.6328 24.5187 12.4214C24.5187 12.312 24.4859 12.1881 24.4641 12.0569C24.4422 11.9257 24.3985 11.7799 24.362 11.6232C24.2836 11.2517 24.1788 10.8863 24.0486 10.5297C23.7176 9.56105 23.242 8.64801 22.638 7.82155C21.7624 6.60337 20.6392 5.58398 19.3421 4.83021C18.045 4.07644 16.6032 3.60531 15.1113 3.4477C13.2326 3.2576 11.3371 3.56953 9.61846 4.35163C9.1617 4.56492 8.71969 4.80846 8.29536 5.08061C8.08396 5.21911 7.88349 5.37584 7.67209 5.52163C7.45954 5.66896 7.25849 5.83224 7.07069 6.01005C6.67723 6.3505 6.3059 6.71573 5.95899 7.10351C5.61907 7.51451 5.30733 7.94803 5.0259 8.40109C4.44196 9.32973 4.01122 10.3463 3.75019 11.4118C3.48959 12.5092 3.3962 13.6397 3.47318 14.765C3.57379 15.8934 3.84668 16.9997 4.28234 18.0454C4.70678 19.0575 5.2941 19.9933 6.02096 20.8155C6.37067 21.2193 6.74824 21.5981 7.15088 21.9491C7.5554 22.2819 7.98158 22.5876 8.42659 22.864C8.86015 23.1397 9.31332 23.3834 9.78248 23.5929C10.2445 23.7894 10.7194 23.9538 11.204 24.085C13.5699 24.7349 16.0878 24.5454 18.3298 23.5487C20.5718 22.552 22.3993 20.8096 23.5018 18.6177C23.9688 17.7006 24.2922 16.7171 24.4604 15.7018C24.5344 15.3414 24.5808 14.9758 24.5989 14.6083C24.5989 14.4479 24.6281 14.2985 24.6317 14.1636C24.6354 14.0288 24.6317 13.9012 24.6317 13.7992C24.6317 13.5841 24.6317 13.4164 24.6317 13.2925C24.6261 13.2343 24.6261 13.1757 24.6317 13.1176C24.6356 13.1746 24.6356 13.2318 24.6317 13.2889C24.6317 13.4164 24.6317 13.5841 24.6573 13.7955C24.6573 13.9085 24.6573 14.0324 24.6755 14.16C24.6937 14.2876 24.6755 14.4479 24.65 14.612C24.639 14.9873 24.6 15.3614 24.5333 15.7309C24.3755 16.7524 24.0607 17.7434 23.6002 18.6687C22.9313 20.0353 21.9792 21.2439 20.8071 22.2142C19.6351 23.1845 18.27 23.8943 16.8025 24.2964C14.4403 24.9242 11.9365 24.7499 9.68406 23.8007C9.20594 23.5903 8.74313 23.3467 8.29901 23.0717C7.36957 22.5157 6.5383 21.81 5.83871 20.9832C5.09899 20.1425 4.4985 19.1888 4.06001 18.1584C3.14148 16.0159 2.95695 13.6299 3.53515 11.3717C3.79914 10.283 4.23994 9.24499 4.84001 8.29903C5.12665 7.83598 5.44578 7.39384 5.79498 6.97594C6.1482 6.57529 6.52813 6.199 6.93218 5.84967C7.12366 5.66941 7.32834 5.50372 7.54452 5.35397C7.75957 5.20453 7.96368 5.04416 8.18237 4.90565C8.61474 4.63001 9.0667 4.38636 9.53462 4.17668C11.2861 3.38341 13.2177 3.07259 15.1295 3.27639C16.6428 3.43906 18.1041 3.92199 19.4163 4.6931C20.7285 5.4642 21.8615 6.5058 22.74 7.74865C23.3425 8.58859 23.811 9.51693 24.1287 10.5005C24.2562 10.8565 24.355 11.2222 24.424 11.594C24.4604 11.7507 24.4969 11.9002 24.5224 12.035C24.5479 12.1699 24.5515 12.2938 24.5625 12.3995C24.588 12.6109 24.6062 12.764 24.6208 12.9025C24.6304 12.9652 24.6341 13.0287 24.6317 13.092Z" fill="#263238"/>
<g opacity="0.3">
<path d="M24.5547 13.2128C24.4928 13.2128 24.4089 12.7572 24.1902 11.9553C23.8614 10.8343 23.3636 9.76991 22.7141 8.79887C22.2644 8.13774 21.745 7.52677 21.165 6.97643C20.4965 6.35606 19.7519 5.82327 18.9489 5.39091C18.065 4.91704 17.1172 4.57331 16.135 4.37035C15.6171 4.26512 15.092 4.19933 14.5641 4.17352C14.0204 4.15192 13.4759 4.17019 12.9348 4.2282C12.3946 4.2905 11.8598 4.39284 11.3347 4.53437C10.8256 4.67853 10.3274 4.8588 9.84397 5.07381C9.37722 5.28115 8.92751 5.52489 8.499 5.80278C8.08579 6.06635 7.69342 6.36123 7.32535 6.68484C6.63183 7.28184 6.01918 7.96679 5.50291 8.72233C5.06277 9.38652 4.69613 10.0966 4.40944 10.84C3.99492 11.9312 3.74911 13.0791 3.68046 14.2443C3.62944 15.0753 3.65131 15.5455 3.5857 15.5528C3.5201 15.5601 3.41074 15.0972 3.36336 14.2407C3.3147 13.0185 3.49138 11.7978 3.88458 10.6395C4.46668 8.90489 5.48601 7.34954 6.84422 6.12353C7.23361 5.76699 7.65041 5.44159 8.09078 5.15035C8.54848 4.84289 9.02991 4.57231 9.53051 4.34119C10.0481 4.0999 10.5844 3.90121 11.1343 3.74707C11.7 3.59252 12.2762 3.47923 12.8583 3.4081C13.443 3.34762 14.0315 3.33056 14.6188 3.35707C15.1888 3.3874 15.7556 3.46296 16.3136 3.58305C16.8516 3.6967 17.3794 3.85395 17.8919 4.05324C18.3865 4.23955 18.8655 4.46503 19.3243 4.72754C20.9224 5.62022 22.2612 6.91259 23.2098 8.47812C23.8484 9.51966 24.2895 10.67 24.511 11.8715C24.6276 12.7317 24.6021 13.1946 24.5547 13.2128Z" fill="black"/>
</g>
<g opacity="0.3">
<path d="M15.7047 20.1815L15.8833 22.0295L14.2285 22.1826L14.0608 20.3856C12.4133 20.444 10.7804 20.0795 9.82183 19.4562L10.5508 17.3568C11.5606 17.9305 12.7026 18.2307 13.864 18.2279L13.6052 15.4724C11.7281 15.199 9.62136 14.7835 9.39902 12.4252C9.23136 10.6757 10.3613 9.05737 12.9418 8.51429L12.7705 6.69185L14.4217 6.53512L14.593 8.33568C15.7807 8.28902 16.9625 8.52513 18.041 9.02457L17.4068 11.1313C16.5871 10.7525 15.6997 10.5418 14.7971 10.5117L15.0632 13.3146C16.9403 13.5697 19.0142 13.9889 19.2329 16.3143C19.386 18.0201 18.2707 19.6239 15.7047 20.1815ZM13.3647 13.0485L13.1387 10.7049C12.2821 10.9855 11.9832 11.4994 12.0452 12.0425C12.1072 12.5856 12.6138 12.8845 13.3647 13.0485ZM16.5831 16.7553C16.5284 16.1758 16.0181 15.9097 15.2855 15.7275L15.5006 18.0055C16.3097 17.7431 16.6305 17.2802 16.5831 16.7553Z" fill="black"/>
</g>
</svg>
