<svg width="96" height="96" viewBox="0 0 96 96" fill="none" xmlns="http://www.w3.org/2000/svg">
<g clip-path="url(#clip0_239_436)">
<path d="M47.9998 54.8571C57.4675 54.8571 65.1426 47.182 65.1426 37.7143C65.1426 28.2465 57.4675 20.5714 47.9998 20.5714C38.5321 20.5714 30.8569 28.2465 30.8569 37.7143C30.8569 47.182 38.5321 54.8571 47.9998 54.8571Z" stroke="#5BFF6F" stroke-width="6" stroke-linecap="round" stroke-linejoin="round"/>
<path d="M18.7197 81.6001C21.7797 76.5772 26.0803 72.4259 31.208 69.5459C36.3358 66.6651 42.1183 65.1521 47.9997 65.1521C53.8812 65.1521 59.6637 66.6651 64.7914 69.5459C69.9194 72.4259 74.2195 76.5772 77.2799 81.6001" stroke="#5BFF6F" stroke-width="6" stroke-linecap="round" stroke-linejoin="round"/>
<path d="M47.9999 92.5714C72.6164 92.5714 92.5713 72.6165 92.5713 48C92.5713 23.3839 72.6164 3.42859 47.9999 3.42859C23.3838 3.42859 3.42847 23.3839 3.42847 48C3.42847 72.6165 23.3838 92.5714 47.9999 92.5714Z" stroke="#5BFF6F" stroke-width="6" stroke-linecap="round" stroke-linejoin="round"/>
</g>
<defs>
<clipPath id="clip0_239_436">
<rect width="96" height="96" fill="white"/>
</clipPath>
</defs>
</svg>
