<svg width="24" height="25" viewBox="0 0 24 25" fill="none" xmlns="http://www.w3.org/2000/svg">
<g clip-path="url(#clip0_39_481)">
<path d="M23.1429 12.3971C23.1446 12.1592 23.0966 11.9235 23.0021 11.7051C22.9077 11.4867 22.7688 11.2903 22.5943 11.1285L12.0001 1.35712L1.40579 11.1285C1.23132 11.2903 1.09244 11.4867 0.997994 11.7051C0.903549 11.9235 0.855607 12.1592 0.857217 12.3971V21.9285C0.857217 22.3832 1.03783 22.8193 1.35932 23.1407C1.68081 23.4621 2.11685 23.6428 2.5715 23.6428H21.4286C21.8832 23.6428 22.3193 23.4621 22.6408 23.1407C22.9624 22.8193 23.1429 22.3832 23.1429 21.9285V12.3971Z" stroke="black" stroke-width="2" stroke-linecap="round" stroke-linejoin="round"/>
<path d="M12 23.6428V16.7857" stroke="black" stroke-width="2" stroke-linecap="round" stroke-linejoin="round"/>
</g>
<defs>
<clipPath id="clip0_39_481">
<rect width="24" height="24" fill="white" transform="translate(0 0.5)"/>
</clipPath>
</defs>
</svg>
