<svg width="135" height="144" viewBox="0 0 135 144" fill="none" xmlns="http://www.w3.org/2000/svg">
<path d="M24.0066 120.445L34.6164 143.878H39.7384L40.4735 142.089L41.3816 143.878H44.7426L44.3534 130.198L44.1883 122.116L24.0066 120.445Z" fill="#5BFF6F"/>
<path opacity="0.3" d="M24.0066 120.445L34.6164 143.878H39.7384L40.4735 142.089L41.3816 143.878H44.7426L44.3534 130.198L44.1883 122.116L24.0066 120.445Z" fill="black"/>
<path d="M70.4517 122.957L80.802 143.878H85.9241L86.6552 142.239L87.5672 143.878H90.9282L90.5351 131.354L90.37 123.956L70.4517 122.957Z" fill="#5BFF6F"/>
<path opacity="0.3" d="M70.4517 122.957L80.802 143.878H85.9241L86.6552 142.239L87.5672 143.878H90.9282L90.5351 131.354L90.37 123.956L70.4517 122.957Z" fill="black"/>
<path d="M129.318 61.2957L129.412 61.3311L129.687 61.449C130.034 61.6223 130.357 61.8375 130.651 62.0898C131.121 62.4911 131.52 62.9697 131.83 63.5049C132.237 64.213 132.477 65.0051 132.53 65.8203C132.589 66.818 132.338 67.8096 131.81 68.6585C131.207 69.6343 130.313 70.3971 129.255 70.8402C128.675 71.0977 128.048 71.2308 127.413 71.2308C126.779 71.2308 126.152 71.0977 125.572 70.8402C124.95 70.549 124.462 70.0317 124.208 69.3935C124.067 69.0673 124.01 68.711 124.043 68.3572C124.076 68.0035 124.198 67.6637 124.396 67.3691C124.609 67.0872 124.88 66.8552 125.192 66.6895C125.504 66.5238 125.848 66.4284 126.201 66.4099C126.886 66.3798 127.558 66.6006 128.091 67.031C128.586 67.4312 128.981 67.9412 129.244 68.5205C129.508 69.0998 129.633 69.7325 129.609 70.3684C129.57 71.5174 129.156 72.622 128.43 73.5132C128.106 73.9172 127.718 74.2651 127.282 74.5431C126.878 74.7936 126.443 74.9905 125.988 75.1289C125.205 75.3554 124.383 75.417 123.575 75.3097C122.966 75.2321 122.372 75.0679 121.81 74.8223C121.455 74.6703 121.117 74.4833 120.799 74.2641L120.56 74.0832C120.53 74.0633 120.504 74.0395 120.481 74.0125C120.91 74.3009 121.365 74.5471 121.841 74.7476C122.399 74.9773 122.987 75.1282 123.587 75.1957C124.379 75.2877 125.181 75.2182 125.945 74.9913C126.385 74.8505 126.805 74.6551 127.195 74.4095C127.613 74.1364 127.984 73.7964 128.292 73.4032C128.985 72.5377 129.376 71.4691 129.404 70.3606C129.423 69.7558 129.302 69.155 129.05 68.6047C128.799 68.0545 128.424 67.5698 127.954 67.1883C127.457 66.7894 126.833 66.5829 126.197 66.6065C125.874 66.6241 125.56 66.7116 125.275 66.863C124.99 67.0144 124.741 67.226 124.546 67.4831C124.368 67.7504 124.259 68.0581 124.23 68.378C124.202 68.698 124.253 69.02 124.381 69.3149C124.616 69.9077 125.069 70.3885 125.646 70.6593C126.203 70.9066 126.806 71.0344 127.415 71.0344C128.025 71.0344 128.627 70.9066 129.184 70.6593C130.208 70.235 131.075 69.5028 131.665 68.5641C132.185 67.744 132.436 66.7821 132.384 65.8124C132.34 65.0163 132.116 64.2407 131.728 63.5442C131.437 63.017 131.061 62.5415 130.615 62.1369C130.221 61.801 129.785 61.5182 129.318 61.2957Z" fill="#5BFF6F"/>
<path d="M124.252 82.4956C125.793 117.265 96.6445 134.617 63.6477 134.617C30.6509 134.617 3.89648 112.025 3.89648 84.1584C3.89648 56.2916 30.6273 33.7002 63.6477 33.7002C96.6681 33.7002 123.018 54.6563 124.252 82.4956Z" fill="#5BFF6F"/>
<path opacity="0.3" d="M59.4836 46.1611C59.4836 46.1611 63.4579 44.8914 67.153 49.0897C70.8482 53.288 76.0371 60.4228 76.0371 60.4228C75.5732 62.746 74.217 64.5542 71.5872 65.6313L59.4836 46.1611Z" fill="black"/>
<path d="M24.36 120.308C35.658 120.308 44.8169 113.289 44.8169 104.631C44.8169 95.9733 35.658 88.9545 24.36 88.9545C13.062 88.9545 3.90308 95.9733 3.90308 104.631C3.90308 113.289 13.062 120.308 24.36 120.308Z" fill="#5BFF6F"/>
<path d="M43.4407 62.7192C43.4407 62.7192 55.4302 44.1177 60.9218 46.1382C66.4134 48.1588 71.567 65.632 71.567 65.632" fill="#5BFF6F"/>
<path d="M29.8835 58.4576L29.3214 53.4181C29.3214 53.4181 21.8171 50.2733 15.0912 48.7441C8.36525 47.215 7.04443 48.7441 7.04443 48.7441L17.6817 63.6465L29.8835 58.4576Z" fill="#5BFF6F"/>
<path opacity="0.3" d="M45.8868 40.6147L49.865 42.9733C49.865 42.9733 69.1269 37.863 83.9311 42.9733L78.5023 38.3543C78.5023 38.3543 60.5573 34.502 45.8868 40.6147Z" fill="black"/>
<path opacity="0.3" d="M24.36 120.308C35.658 120.308 44.8169 113.289 44.8169 104.631C44.8169 95.9733 35.658 88.9545 24.36 88.9545C13.062 88.9545 3.90308 95.9733 3.90308 104.631C3.90308 113.289 13.062 120.308 24.36 120.308Z" fill="black"/>
<path d="M19.1636 120.308C29.7474 120.308 38.3272 113.289 38.3272 104.631C38.3272 95.9733 29.7474 88.9545 19.1636 88.9545C8.57985 88.9545 0 95.9733 0 104.631C0 113.289 8.57985 120.308 19.1636 120.308Z" fill="#5BFF6F"/>
<path opacity="0.3" d="M12.5393 97.2757H11.0651C10.34 97.2757 9.7522 97.8635 9.7522 98.5886V110.673C9.7522 111.398 10.34 111.985 11.0651 111.985H12.5393C13.2644 111.985 13.8522 111.398 13.8522 110.673V98.5886C13.8522 97.8635 13.2644 97.2757 12.5393 97.2757Z" fill="black"/>
<path opacity="0.3" d="M23.5505 97.2757H22.0764C21.3513 97.2757 20.7634 97.8635 20.7634 98.5886V110.673C20.7634 111.398 21.3513 111.985 22.0764 111.985H23.5505C24.2756 111.985 24.8635 111.398 24.8635 110.673V98.5886C24.8635 97.8635 24.2756 97.2757 23.5505 97.2757Z" fill="black"/>
<path opacity="0.3" d="M28.72 58.9492C30.4457 57.9782 31.3695 56.5238 30.7208 54.1219C30.7208 54.1219 21.8171 50.2813 15.0912 48.7443C8.36525 47.2073 7.04443 48.7443 7.04443 48.7443L17.6817 63.6467L28.72 58.9492Z" fill="black"/>
<path d="M29.3212 59.3575L27.9807 58.4573C24.0143 55.8078 12.4257 48.2368 9.505 48.1542C5.4718 48.0363 5.46394 51.5152 5.4718 54.204C5.4718 56.1105 7.0442 72.6797 7.0442 72.6797" fill="#5BFF6F"/>
<path d="M71.5674 65.6319C71.5674 65.6319 71.5478 65.5965 71.5203 65.5179C71.4928 65.4393 71.4534 65.3174 71.4063 65.1759L70.966 63.859C70.5729 62.719 69.999 61.072 69.2128 59.0672C68.3043 56.7153 67.2541 54.4206 66.068 52.1958C65.3732 50.8827 64.5586 49.6365 63.6347 48.4731C63.1518 47.8599 62.5931 47.3104 61.9719 46.8378C61.3613 46.3265 60.5819 46.0616 59.7862 46.0949C58.9907 46.1948 58.2256 46.4628 57.5416 46.8811C56.8636 47.2728 56.2181 47.7185 55.6115 48.2137C54.4633 49.1581 53.3799 50.1785 52.3684 51.2681C50.6567 53.1225 49.039 55.0616 47.5215 57.0781C46.2164 58.7881 45.2062 60.2229 44.5143 61.1978L43.7281 62.3377L43.5198 62.6365C43.4726 62.6994 43.449 62.7348 43.4451 62.7308C43.4595 62.6928 43.4793 62.657 43.504 62.6247L43.6927 62.3142C43.8618 62.0468 44.1173 61.6537 44.4553 61.1545C45.1236 60.1521 46.1181 58.7173 47.4114 56.9877C48.9191 54.9589 50.5304 53.0092 52.2387 51.1462C53.2529 50.0466 54.3403 49.017 55.4936 48.0643C56.1105 47.5604 56.7679 47.1081 57.4591 46.7121C58.1698 46.287 58.9633 46.019 59.7862 45.9259C60.2095 45.8822 60.637 45.9415 61.0324 46.0988C61.4123 46.2583 61.7725 46.4615 62.1055 46.7042C62.7423 47.1859 63.3132 47.7488 63.8037 48.3788C64.7346 49.5522 65.5532 50.8104 66.2488 52.1368C67.4285 54.3619 68.4658 56.6596 69.3543 59.016C70.1405 61.0326 70.683 62.6876 71.0485 63.8354C71.2294 64.4094 71.367 64.8575 71.4416 65.1641L71.536 65.514C71.5525 65.5514 71.5632 65.5912 71.5674 65.6319Z" fill="#263238"/>
<path d="M78.5015 38.3584C78.5372 38.3775 78.5703 38.4013 78.5998 38.4292L78.8749 38.6493L79.9206 39.5259L83.7415 42.7651L83.9931 42.9813L83.6708 42.8909C81.3607 42.2385 79.0136 41.7252 76.6421 41.3538C73.7436 40.906 70.8167 40.6669 67.8839 40.6384C61.8464 40.5745 55.8314 41.3835 50.0253 43.0402H49.9978H49.9742L46.9474 41.2674L46.1612 40.7917L45.9568 40.662C45.9135 40.6345 45.8899 40.6187 45.8939 40.6148L45.9685 40.6502L46.1769 40.7603L46.9906 41.2084L50.045 42.9341H49.9978C52.5003 42.1951 55.0475 41.6174 57.624 41.2045C59.1492 40.9529 60.7923 40.7681 62.5102 40.6187C64.228 40.4694 66.0481 40.4143 67.8957 40.4497C70.837 40.4769 73.7722 40.7213 76.6775 41.1809C79.0556 41.5601 81.4082 42.0852 83.7219 42.7533L83.655 42.8791L79.8773 39.5888L78.8553 38.6847C78.7452 38.5864 78.6627 38.5078 78.5919 38.4488C78.5593 38.4213 78.529 38.391 78.5015 38.3584Z" fill="#263238"/>
<path d="M30.5949 92.0639C30.5538 92.0475 30.5154 92.0249 30.4809 91.9971L30.1625 91.7887L29.6515 91.4428C29.4432 91.317 29.1916 91.1833 28.9164 91.0261C27.3287 90.1926 25.6203 89.613 23.8533 89.3083C22.6344 89.1025 21.4019 88.9882 20.166 88.9663C18.7474 88.9557 17.3303 89.0596 15.9284 89.2768C12.7037 89.7499 9.62764 90.9459 6.93033 92.7754C6.23988 93.2681 5.58324 93.8066 4.96483 94.3871C4.36546 94.9566 3.80963 95.5703 3.30202 96.2229C2.34217 97.4597 1.56872 98.8304 1.00631 100.291C0.106813 102.8 -0.0675743 105.511 0.503146 108.114C0.736616 109.106 1.08352 110.067 1.53699 110.98C1.89368 111.661 2.31352 112.307 2.79098 112.91L3.33346 113.555L3.77373 113.987L4.04497 114.258C4.07553 114.288 4.10441 114.32 4.13146 114.353C4.13146 114.353 4.09608 114.329 4.02925 114.274L3.74622 114.018L3.29022 113.598C3.12512 113.409 2.94036 113.205 2.72809 112.961C2.23522 112.361 1.80207 111.715 1.43479 111.031C0.963813 110.115 0.603557 109.147 0.36163 108.146C-0.235842 105.516 -0.0736162 102.77 0.829414 100.229C1.10106 99.5015 1.42966 98.7969 1.81216 98.1216C2.20329 97.4145 2.64885 96.7389 3.14478 96.101C3.65775 95.4383 4.22018 94.8155 4.82724 94.2377C5.45572 93.648 6.12571 93.1041 6.83205 92.6103C9.55364 90.7563 12.6617 89.5464 15.9205 89.0724C17.3331 88.8579 18.7609 88.7593 20.1896 88.7776C21.4341 88.8093 22.6745 88.9341 23.9004 89.151C25.6779 89.47 27.3919 90.0754 28.9754 90.9436C29.2505 91.1047 29.4982 91.2423 29.7026 91.376L30.2058 91.7376L30.5124 91.9656C30.5435 91.9952 30.5712 92.0281 30.5949 92.0639Z" fill="#263238"/>
<path d="M13.7348 98.6519C13.7672 98.8599 13.7817 99.0704 13.7781 99.2809C13.7781 99.7172 13.8213 100.295 13.8528 100.987C13.9117 102.43 14.0296 104.419 14.0847 106.624C14.0847 107.174 14.0847 107.713 14.0847 108.232C14.0933 108.737 14.0552 109.243 13.9707 109.741C13.9153 110.175 13.7611 110.59 13.5198 110.955C13.2785 111.319 12.9567 111.624 12.5791 111.844C12.3144 111.977 12.0197 112.039 11.7239 112.023C11.4281 112.007 11.1416 111.914 10.8927 111.754C10.7592 111.666 10.6444 111.552 10.5546 111.42C10.5224 111.376 10.4985 111.327 10.4839 111.274C10.6097 111.437 10.7626 111.577 10.9359 111.687C11.1747 111.823 11.4439 111.897 11.7186 111.902C11.9934 111.907 12.265 111.842 12.5084 111.715C12.8566 111.496 13.1515 111.202 13.3712 110.854C13.591 110.507 13.73 110.114 13.7781 109.706C13.8538 109.218 13.8867 108.725 13.8763 108.232C13.8763 107.713 13.8763 107.178 13.8567 106.628C13.8017 104.427 13.7073 102.434 13.6837 100.991C13.6837 100.268 13.6837 99.6858 13.6837 99.2809C13.6834 99.0702 13.7005 98.8598 13.7348 98.6519Z" fill="#263238"/>
<path d="M24.6003 98.6519C24.6356 98.8596 24.6514 99.0702 24.6475 99.2809C24.6475 99.7172 24.6907 100.295 24.7182 100.987C24.7811 102.43 24.8951 104.419 24.9502 106.624C24.9502 107.174 24.9502 107.713 24.9502 108.232C24.9581 108.737 24.9213 109.242 24.8401 109.741C24.7842 110.175 24.6297 110.59 24.3885 110.954C24.1472 111.319 23.8257 111.623 23.4485 111.844C23.1831 111.977 22.8878 112.039 22.5914 112.023C22.295 112.007 22.0079 111.914 21.7582 111.754C21.6254 111.666 21.5117 111.553 21.4241 111.42C21.3899 111.377 21.3645 111.327 21.3494 111.274C21.4765 111.436 21.6292 111.575 21.8014 111.687C22.0402 111.823 22.3094 111.897 22.5841 111.902C22.8589 111.907 23.1304 111.842 23.3738 111.715C23.7235 111.497 24.0194 111.204 24.2393 110.856C24.4592 110.508 24.5974 110.115 24.6435 109.706C24.7213 109.219 24.7542 108.725 24.7418 108.232C24.7418 107.713 24.7418 107.178 24.7222 106.628C24.6671 104.427 24.5728 102.434 24.5492 100.991C24.5492 100.268 24.5492 99.6858 24.5492 99.2809C24.5489 99.0702 24.566 98.8598 24.6003 98.6519Z" fill="#263238"/>
<path d="M38.0958 108.043C38.0798 108.137 38.0521 108.228 38.0132 108.314C37.9464 108.487 37.8717 108.751 37.7223 109.073C37.3316 109.99 36.8496 110.866 36.2836 111.687C35.4492 112.911 34.4728 114.031 33.3746 115.024C32.7234 115.607 32.0382 116.15 31.3226 116.652C30.5479 117.184 29.7375 117.662 28.8972 118.083C27.2784 118.911 25.5613 119.532 23.7869 119.93C22.3432 120.233 20.8711 120.38 19.396 120.367C18.1341 120.367 17.1199 120.292 16.4163 120.241L15.6104 120.178C15.5151 120.174 15.4203 120.161 15.3274 120.139C15.4216 120.132 15.5162 120.132 15.6104 120.139L16.4202 120.166C17.1239 120.19 18.142 120.237 19.396 120.225C20.8632 120.218 22.3256 120.057 23.7594 119.746C25.5114 119.34 27.2067 118.719 28.8068 117.898C29.6374 117.481 30.4397 117.009 31.2086 116.487C31.918 115.992 32.5979 115.457 33.2449 114.883C34.3399 113.906 35.3198 112.808 36.1656 111.608C36.7372 110.8 37.2333 109.941 37.6476 109.042C37.8088 108.727 37.8953 108.468 37.9739 108.299C38.0092 108.211 38.0499 108.126 38.0958 108.043Z" fill="#263238"/>
<path d="M13.4987 98.215C13.4174 98.0779 13.3268 97.9466 13.2275 97.8219C13.083 97.6672 12.9092 97.5427 12.7162 97.4557C12.5232 97.3686 12.3149 97.3207 12.1032 97.3148C11.79 97.3121 11.4797 97.3767 11.1936 97.5042C10.9074 97.6317 10.6519 97.8191 10.4444 98.0538C10.2001 98.3302 10.0274 98.6622 9.94119 99.0209C9.85626 99.416 9.818 99.8197 9.82719 100.224C9.82719 101.914 9.84685 103.447 9.82719 104.548C9.82719 105.071 9.82719 105.507 9.82719 105.861C9.83516 106.023 9.82327 106.185 9.79181 106.344C9.76211 106.185 9.74763 106.023 9.74857 105.861C9.74857 105.511 9.72105 105.075 9.7014 104.548C9.67388 103.439 9.64244 101.91 9.63064 100.224C9.62043 99.8022 9.66268 99.3809 9.75643 98.9698C9.84992 98.5803 10.0422 98.2216 10.3146 97.928C10.5409 97.6764 10.82 97.4779 11.1319 97.3468C11.4438 97.2156 11.7809 97.155 12.119 97.1694C12.3466 97.1816 12.5692 97.2415 12.7724 97.3451C12.9755 97.4487 13.1546 97.5937 13.2983 97.7708C13.3722 97.8686 13.433 97.9756 13.4791 98.0892C13.4948 98.1718 13.5066 98.2111 13.4987 98.215Z" fill="white"/>
<path d="M20.7001 99.139C20.7551 99.139 20.8023 101.211 20.8023 103.766C20.8023 106.321 20.7551 108.393 20.7001 108.393C20.6451 108.393 20.5979 106.321 20.5979 103.766C20.5979 101.211 20.6411 99.139 20.7001 99.139Z" fill="white"/>
<path d="M17.4021 90.2003C17.3211 90.2094 17.2394 90.2094 17.1584 90.2003C17.0012 90.2003 16.7653 90.2003 16.4666 90.2003C15.6211 90.2282 14.7788 90.3188 13.9468 90.4716C10.7743 91.0623 7.8407 92.5589 5.50034 94.7806C3.15998 97.0024 1.51298 99.8543 0.758282 102.992C0.679662 103.283 0.640355 103.511 0.601045 103.664C0.586566 103.744 0.565529 103.823 0.538147 103.9C0.535344 103.818 0.543272 103.736 0.561732 103.656C0.589249 103.503 0.612837 103.263 0.679664 102.976C0.848615 102.141 1.0893 101.321 1.39904 100.527C2.41504 97.8845 4.10681 95.5548 6.30528 93.7709C8.50376 91.987 11.1319 90.8114 13.9271 90.3615C14.7676 90.2209 15.6183 90.1499 16.4705 90.1492C16.7732 90.1492 17.0051 90.1689 17.1623 90.1728C17.2431 90.173 17.3235 90.1822 17.4021 90.2003Z" fill="white"/>
<path d="M7.12298 70.1723C7.10859 70.2496 7.08482 70.3248 7.05222 70.3964C6.98932 70.5615 6.90677 70.7659 6.8085 71.0175C6.71022 71.269 6.56871 71.615 6.4154 72.0041C6.26209 72.3933 6.10878 72.8296 5.95547 73.325C5.80216 73.8203 5.62134 74.3588 5.4641 74.9445C5.30686 75.5302 5.14568 76.1631 4.98451 76.8275C4.66334 78.2768 4.42188 79.7426 4.26121 81.2184C4.11579 82.6958 4.05018 84.1799 4.06466 85.6643C4.08432 86.3483 4.09611 86.9969 4.14721 87.6062C4.19831 88.2155 4.23763 88.7855 4.29266 89.2926C4.34769 89.7997 4.41845 90.2675 4.47348 90.6763C4.52852 91.0852 4.58355 91.435 4.63858 91.722C4.69362 92.009 4.7172 92.2055 4.74865 92.3785C4.76436 92.4548 4.77227 92.5325 4.77224 92.6104C4.73892 92.5395 4.71639 92.4639 4.70541 92.3863C4.67003 92.2173 4.61893 91.9932 4.55997 91.7338C4.501 91.4743 4.42238 91.1048 4.35949 90.696C4.29659 90.2872 4.20618 89.8272 4.15114 89.3084C4.09611 88.7895 4.01749 88.2273 3.97818 87.618C3.93887 87.0087 3.90349 86.3523 3.87597 85.6525C3.85002 84.1591 3.9104 82.6655 4.0568 81.1791C4.21825 79.6957 4.46633 78.2229 4.79976 76.7685C4.96879 76.1042 5.11817 75.4673 5.30292 74.8816C5.48768 74.2959 5.64885 73.7534 5.81788 73.2621C5.98692 72.7707 6.15988 72.3343 6.30926 71.9491C6.45864 71.5639 6.59622 71.2376 6.70236 70.9742L6.98146 70.3649C7.02199 70.2961 7.0694 70.2316 7.12298 70.1723Z" fill="white"/>
<path d="M7.70823 49.7311C7.70823 49.7311 7.54706 49.9434 7.31513 50.3562C6.99655 50.9458 6.7749 51.5829 6.65865 52.243C6.49634 53.2266 6.41613 54.2219 6.41886 55.2188C6.38742 56.347 6.37955 57.5774 6.41886 58.8943C6.48176 61.4966 6.69404 63.8512 6.89059 65.5494C6.99279 66.371 7.07928 67.0511 7.14217 67.5542C7.16969 67.7744 7.19327 67.9473 7.21293 68.1007C7.22234 68.1658 7.22234 68.232 7.21293 68.2972C7.1872 68.237 7.17 68.1735 7.16182 68.1085C7.13431 67.9631 7.09893 67.7822 7.05569 67.57C6.96921 67.0982 6.85521 66.4143 6.73728 65.5652C6.43833 63.349 6.26117 61.1181 6.20659 58.8825C6.17514 57.5735 6.20659 56.3313 6.23018 55.1991C6.23743 54.1929 6.33346 53.1892 6.51714 52.1998C6.64681 51.5342 6.893 50.8968 7.24438 50.3168C7.34168 50.1585 7.45214 50.0086 7.57458 49.8687C7.61335 49.8176 7.65823 49.7714 7.70823 49.7311Z" fill="white"/>
<path d="M45.9731 37.4231C45.8953 37.4676 45.8121 37.5019 45.7255 37.5253L44.9943 37.7848L42.2977 38.7086C39.3356 39.7018 36.4267 40.8472 33.5826 42.1403C30.7374 43.4445 28.0518 45.0722 25.5791 46.9912C24.6396 47.738 23.9124 48.3867 23.4289 48.8505C23.1773 49.0785 23.0004 49.2672 22.8667 49.3851C22.8052 49.451 22.7381 49.5115 22.6663 49.566C22.6663 49.566 22.7213 49.4873 22.8392 49.3576C22.9572 49.2279 23.1301 49.0313 23.3699 48.7955C24.0409 48.1182 24.7482 47.4778 25.4887 46.8772C27.947 44.9159 30.6361 43.2631 33.4962 41.9556C36.3519 40.6551 39.2816 39.5236 42.2702 38.567C43.4141 38.1739 44.3457 37.9027 44.9865 37.7062L45.7294 37.4821C45.8087 37.4551 45.8903 37.4353 45.9731 37.4231Z" fill="white"/>
<path d="M59.6565 47.164C59.6015 47.2148 59.5423 47.2608 59.4796 47.3016L58.9567 47.6711C58.4968 47.9856 57.8443 48.4573 57.0541 49.0548C56.264 49.6523 55.3402 50.3953 54.3457 51.2522C53.3511 52.1092 52.3094 53.1076 51.2559 54.1965C50.2024 55.2854 49.259 56.3782 48.4295 57.3964C47.6001 58.4145 46.9004 59.3618 46.3343 60.1834C45.7682 61.005 45.3201 61.6654 45.0214 62.1489L44.6715 62.6835C44.6365 62.7503 44.5914 62.8113 44.5378 62.8644C44.5658 62.7953 44.5986 62.7283 44.6361 62.6639C44.7226 62.5184 44.8248 62.3337 44.9545 62.1057C45.2297 61.6222 45.6582 60.9264 46.2125 60.1127C46.7667 59.299 47.4664 58.3241 48.2841 57.2902C49.1017 56.2564 50.053 55.1636 51.1065 54.0668C52.16 52.9701 53.2293 51.9873 54.2238 51.1225C55.2184 50.2577 56.1579 49.5501 56.9755 48.9487C57.7932 48.3472 58.4457 47.9109 58.9214 47.62L59.4638 47.2819C59.521 47.2321 59.5861 47.1922 59.6565 47.164Z" fill="white"/>
<path d="M120.242 74.5119C120.433 74.8234 120.589 75.1558 120.705 75.5025C121.03 76.323 121.302 77.1633 121.519 78.0183C121.735 78.8735 121.896 79.7413 122.003 80.6167C122.066 80.9786 122.087 81.3467 122.066 81.7135C121.974 81.3607 121.905 81.0022 121.861 80.6403C121.747 79.976 121.57 79.0679 121.319 78.0694C121.067 77.071 120.788 76.1904 120.572 75.5536C120.436 75.215 120.326 74.8668 120.242 74.5119Z" fill="white"/>
<path d="M110.834 119.58L110.642 119.726L110.064 120.119L109.121 120.783L108.515 121.204L107.812 121.66C105.018 123.51 102.108 125.179 99.1004 126.656C98.1452 127.124 97.1349 127.584 96.0814 128.063L94.454 128.755L93.6128 129.109L92.7479 129.443L90.9751 130.115L89.1196 130.756C88.4946 130.98 87.8499 131.177 87.1974 131.373C86.5448 131.57 85.8883 131.794 85.2083 131.967C82.3848 132.765 79.5201 133.409 76.6269 133.897C73.5225 134.443 70.3852 134.782 67.2358 134.911C64.088 135.051 60.9342 134.953 57.8014 134.616L56.6692 134.506C56.2761 134.467 55.9223 134.404 55.5489 134.357L53.3475 134.042L51.2051 133.649L50.1516 133.453L49.1217 133.217C44.2651 132.15 39.5252 130.608 34.9701 128.614C31.896 127.289 28.9376 125.712 26.1254 123.896C25.1151 123.279 24.3918 122.717 23.8808 122.348L23.3069 121.927L23.1182 121.782C23.1182 121.782 23.1889 121.821 23.3186 121.911L23.9044 122.304C24.4233 122.65 25.1544 123.212 26.1686 123.822C28.9916 125.614 31.9547 127.176 35.0291 128.492C39.5794 130.464 44.3111 131.989 49.1571 133.044L50.187 133.276L51.2366 133.472L53.3751 133.865L55.5725 134.176C55.942 134.223 56.3115 134.286 56.6889 134.325L57.821 134.431C60.945 134.763 64.0894 134.86 67.2279 134.722C70.3676 134.593 73.4955 134.258 76.5915 133.72C79.4776 133.235 82.3356 132.596 85.1532 131.806C85.8333 131.633 86.4859 131.412 87.1384 131.216C87.7909 131.019 88.4356 130.823 89.0607 130.603L90.9122 129.97L92.689 129.294L93.5538 128.967L94.3911 128.618L96.0185 127.934C97.072 127.454 98.0823 126.998 99.0336 126.538C102.043 125.081 104.961 123.44 107.768 121.624L108.476 121.176L109.085 120.763L110.04 120.115L110.63 119.722C110.764 119.612 110.834 119.58 110.834 119.58Z" fill="#263238"/>
<path d="M93.903 123.779L101.804 143.984H107.205L108.381 142.223L109.765 143.984H111.675L112.383 111.966L93.903 123.779Z" fill="#5BFF6F"/>
<path d="M44.2749 126.624L50.9576 143.984H57.0899L58.3479 141.987L59.5586 143.999H61.0838C61.0838 143.999 61.7521 124.415 61.0838 123.857C60.4156 123.299 44.2749 126.624 44.2749 126.624Z" fill="#5BFF6F"/>
<path d="M122.281 87.8262C122.284 87.8642 122.284 87.9023 122.281 87.9402C122.281 88.0267 122.281 88.1407 122.253 88.2783C122.227 88.5902 122.188 89.0226 122.135 89.5755C122.104 89.8586 122.073 90.1691 122.041 90.5111C122.01 90.8531 121.927 91.2187 121.864 91.6157C121.723 92.4019 121.609 93.3178 121.353 94.2966C121.235 94.788 121.117 95.303 120.992 95.8415C120.866 96.3801 120.673 96.9225 120.508 97.4925C120.198 98.6443 119.722 99.8275 119.27 101.082C117.134 106.498 114.005 111.469 110.044 115.736C109.112 116.695 108.243 117.623 107.343 118.405C106.899 118.799 106.49 119.192 106.062 119.553L104.823 120.548C104.037 121.2 103.282 121.7 102.63 122.167C102.3 122.395 101.997 122.616 101.71 122.804L100.904 123.292L99.7878 123.964L99.4969 124.133C99.4644 124.153 99.4302 124.17 99.3947 124.184C99.3947 124.184 99.4222 124.156 99.4851 124.113L99.7681 123.928L100.861 123.225L101.647 122.722C101.93 122.533 102.229 122.305 102.555 122.073C103.2 121.597 103.962 121.094 104.725 120.434L105.952 119.431C106.376 119.082 106.781 118.677 107.221 118.28C108.114 117.493 108.971 116.566 109.898 115.607C113.822 111.341 116.935 106.397 119.085 101.015C119.549 99.7646 120.021 98.5854 120.339 97.4454C120.508 96.8754 120.697 96.3329 120.83 95.8022L121.223 94.2652C121.487 93.2903 121.617 92.3823 121.762 91.5961C121.829 91.203 121.907 90.8374 121.955 90.4954C122.002 90.1534 122.033 89.8468 122.065 89.5637C122.135 89.0173 122.187 88.5849 122.226 88.2744L122.273 87.9402C122.271 87.9021 122.274 87.8638 122.281 87.8262Z" fill="white"/>
<g opacity="0.2">
<path d="M113.736 70.7811C111.939 66.3391 108.032 62.133 103.515 60.309C102.655 59.9679 101.725 59.8364 100.804 59.9252C99.8826 60.014 98.9955 60.3207 98.216 60.8199C97.4365 61.3191 96.7869 61.9965 96.3208 62.7962C95.8546 63.5959 95.5854 64.495 95.5352 65.4193C95.5352 65.4507 95.5352 65.4782 95.5352 65.5058C95.3937 68.3518 96.5101 71.1153 97.8938 73.6154C99.2775 76.1155 100.909 78.478 101.974 81.1197C103.729 85.5281 103.785 90.4308 102.131 94.8781C101.078 97.677 99.3286 100.657 100.913 103.448C101.951 105.276 104.038 106.176 106.133 105.987C110.147 105.622 112.23 101.997 114.133 98.7069C115.662 96.0574 116.92 91.9377 116.995 88.8283C117.202 82.6494 116.091 76.4972 113.736 70.7811Z" fill="white"/>
</g>
<path d="M22.9686 80.3845C23.0869 80.9792 23.0107 81.5961 22.7514 82.1442C22.4922 82.6923 22.0635 83.1425 21.5287 83.4283C20.994 83.7141 20.3815 83.8203 19.7817 83.7314C19.182 83.6424 18.6267 83.3629 18.198 82.9341C17.7692 82.5054 17.4897 81.9501 17.4007 81.3504C17.3117 80.7506 17.418 80.1381 17.7038 79.6034C17.9896 79.0686 18.4398 78.6399 18.9879 78.3806C19.536 78.1214 20.1529 78.0452 20.7476 78.1634C21.2958 78.273 21.7992 78.5423 22.1945 78.9376C22.5898 79.3328 22.8591 79.8363 22.9686 80.3845Z" fill="#263238"/>
<path d="M53.5598 80.3849C53.6778 80.9798 53.6014 81.5968 53.3418 82.145C53.0823 82.6931 52.6533 83.1432 52.1182 83.4287C51.5832 83.7143 50.9704 83.8201 50.3706 83.7307C49.7708 83.6412 49.2156 83.3612 48.7871 82.932C48.3587 82.5028 48.0796 81.9471 47.9912 81.3471C47.9029 80.7471 48.0098 80.1346 48.2963 79.6C48.5828 79.0655 49.0336 78.6373 49.5822 78.3787C50.1308 78.1201 50.748 78.0448 51.3427 78.1639C51.8903 78.2736 52.3932 78.5431 52.7878 78.9384C53.1824 79.3337 53.451 79.8371 53.5598 80.3849Z" fill="#263238"/>
<path d="M112.808 57.2978C112.738 57.2313 112.672 57.1604 112.611 57.0855C112.478 56.9244 112.305 56.6924 112.085 56.4526C111.864 56.2128 111.581 55.8355 111.247 55.4542C110.913 55.0729 110.544 54.6247 110.103 54.1609C109.663 53.697 109.199 53.1742 108.669 52.6396C108.138 52.105 107.564 51.5468 106.955 50.9571C105.72 49.8093 104.317 48.5985 102.776 47.3917C101.235 46.1849 99.694 45.155 98.2631 44.2469C97.5438 43.8066 96.8637 43.3821 96.2033 43.0204C95.5429 42.6588 94.9375 42.3129 94.3675 42.0141C93.7975 41.7154 93.2826 41.4638 92.8305 41.2279C92.3784 40.9921 91.9775 40.8152 91.6512 40.6697L90.9043 40.3199C90.8166 40.2804 90.7313 40.2357 90.6488 40.1862C90.7422 40.2083 90.8331 40.24 90.92 40.2805L91.6866 40.595C92.0168 40.7326 92.4177 40.9056 92.8659 41.1257C93.314 41.3458 93.8565 41.5778 94.4383 41.8805C95.0201 42.1831 95.6372 42.4898 96.2898 42.8632C96.9423 43.2366 97.642 43.6494 98.3693 44.0779C99.808 44.9781 101.353 46.0434 102.906 47.2227C104.458 48.402 105.858 49.652 107.088 50.8156C107.698 51.4052 108.268 51.9634 108.794 52.5138C109.321 53.0641 109.789 53.5752 110.213 54.0587C110.638 54.5422 111 54.9824 111.338 55.3716C111.676 55.7608 111.935 56.1067 112.151 56.3937L112.651 57.0501C112.709 57.1285 112.762 57.2113 112.808 57.2978Z" fill="white"/>
<path d="M83.0898 44.5971C82.986 44.5729 82.8836 44.5427 82.7832 44.5067L81.9184 44.2079C81.5489 44.0742 81.089 43.9131 80.5504 43.7558C80.0119 43.5986 79.4065 43.3863 78.7186 43.2212L77.6415 42.9343C77.268 42.8399 76.8749 42.7613 76.4622 42.6709C75.6524 42.4743 74.7758 42.3328 73.852 42.1717C69.8412 41.5235 65.7625 41.4059 61.7209 41.8218C60.7932 41.9319 59.9088 42.0223 59.0911 42.1717C58.6783 42.2385 58.2813 42.2935 57.9118 42.3682L56.8229 42.5883C56.1271 42.7181 55.51 42.891 54.9596 43.0207C54.4093 43.1505 53.9454 43.2802 53.568 43.3942L52.6875 43.6379C52.5865 43.6724 52.4826 43.6974 52.377 43.7126C52.4738 43.6678 52.5736 43.6297 52.6757 43.5986L53.5445 43.3156C53.9376 43.1898 54.3857 43.0483 54.9321 42.9225C55.4785 42.7967 56.1114 42.5962 56.7915 42.4586L57.8804 42.2228C58.2735 42.1441 58.6666 42.0891 59.0596 42.0144C59.8812 41.8572 60.7657 41.7628 61.6973 41.6449C65.7564 41.2076 69.8561 41.3253 73.8834 41.9948C74.8072 42.1638 75.6878 42.3132 76.4976 42.5176C76.8907 42.6119 77.2838 42.6905 77.6769 42.7927L78.75 43.0915C79.4379 43.2684 80.0433 43.4846 80.5819 43.6576C81.1204 43.8305 81.5725 43.9996 81.942 44.145L82.795 44.4791C82.8964 44.5101 82.9951 44.5495 83.0898 44.5971Z" fill="white"/>
<path d="M133.618 40.4259C132.922 42.1384 131.734 43.6059 130.203 44.6425C128.673 45.6792 126.869 46.2384 125.021 46.2494C123.172 46.2604 121.362 45.7226 119.819 44.7042C118.277 43.6858 117.071 42.2326 116.355 40.5285C115.639 38.8244 115.444 36.9461 115.796 35.1315C116.148 33.3168 117.03 31.6473 118.332 30.3345C119.633 29.0216 121.294 28.1244 123.106 27.7564C124.917 27.3885 126.797 27.5663 128.508 28.2674C130.797 29.2034 132.62 31.0096 133.579 33.2893C134.537 35.569 134.551 38.1358 133.618 40.4259Z" fill="#5BFF6F"/>
<path d="M131.558 39.5847C131.029 40.8902 130.123 42.0092 128.957 42.7999C127.791 43.5907 126.417 44.0176 125.008 44.0266C123.599 44.0357 122.219 43.6265 121.043 42.8508C119.867 42.0752 118.947 40.9679 118.4 39.6693C117.854 38.3707 117.705 36.9392 117.972 35.5559C118.24 34.1726 118.912 32.8998 119.903 31.8986C120.895 30.8975 122.161 30.213 123.541 29.9319C124.922 29.6508 126.355 29.7856 127.659 30.3194C129.404 31.0316 130.795 32.4075 131.526 34.1449C132.258 35.8823 132.269 37.8389 131.558 39.5847Z" fill="#5BFF6F"/>
<path d="M131.558 39.5848C131.566 39.5475 131.577 39.5108 131.589 39.4747C131.617 39.3961 131.652 39.2899 131.695 39.1524C131.719 39.0816 131.747 39.003 131.774 38.9165C131.802 38.83 131.817 38.7317 131.845 38.6256C131.907 38.3838 131.953 38.1383 131.982 37.8905C132.076 37.2131 132.068 36.5254 131.959 35.8503C131.707 34.2306 130.901 32.7486 129.678 31.6574C128.454 30.5662 126.89 29.9335 125.253 29.8674C124.918 29.855 124.583 29.8642 124.25 29.8949C124.081 29.8949 123.912 29.946 123.743 29.9696C123.573 29.9931 123.404 30.0299 123.24 30.0796C122.901 30.1645 122.569 30.2721 122.245 30.402C121.918 30.5443 121.602 30.7098 121.298 30.8973C120.668 31.2743 120.105 31.7524 119.631 32.3124C119.143 32.8866 118.745 33.5322 118.452 34.2268C118.175 34.9287 118.006 35.6681 117.949 36.4203C117.898 37.151 117.966 37.8851 118.149 38.5942C118.234 38.9398 118.345 39.2788 118.479 39.6083C118.619 39.9295 118.781 40.2408 118.963 40.54C119.139 40.8344 119.336 41.1156 119.553 41.3812C119.768 41.6361 120.001 41.8765 120.248 42.1006C121.183 42.9456 122.325 43.5275 123.558 43.787C124.631 44.0128 125.742 43.9832 126.801 43.7005C127.678 43.4665 128.501 43.0662 129.227 42.5212C129.779 42.1176 130.267 41.6325 130.673 41.0825C130.827 40.8854 130.966 40.6779 131.09 40.4614C131.145 40.371 131.2 40.2845 131.243 40.2059C131.287 40.1272 131.318 40.0486 131.353 39.9818L131.503 39.6791L131.558 39.5769C131.549 39.615 131.536 39.6519 131.519 39.687C131.483 39.7617 131.436 39.8639 131.381 39.9936L131.279 40.2216C131.236 40.3041 131.181 40.3906 131.125 40.485C131.009 40.7045 130.877 40.916 130.732 41.1178C130.329 41.6784 129.843 42.1742 129.29 42.588C127.962 43.5957 126.324 44.1079 124.659 44.0361C122.994 43.9643 121.406 43.3131 120.17 42.1949C119.915 41.9666 119.676 41.721 119.454 41.4598C119.234 41.1901 119.033 40.905 118.853 40.6068C118.667 40.3024 118.501 39.9859 118.358 39.6595C118.22 39.322 118.107 38.9752 118.02 38.6217C117.829 37.8976 117.759 37.1474 117.811 36.4007C117.91 34.8525 118.514 33.3793 119.529 32.2063C120.015 31.6375 120.589 31.1515 121.231 30.7676C121.544 30.5797 121.868 30.4117 122.202 30.2644C122.53 30.1372 122.866 30.0334 123.208 29.9538C123.377 29.9046 123.549 29.8666 123.723 29.8398C123.896 29.8163 124.069 29.7848 124.238 29.7651C124.578 29.7339 124.92 29.726 125.26 29.7416C126.543 29.7976 127.787 30.1938 128.865 30.8894C129.715 31.4448 130.438 32.1741 130.985 33.0292C131.533 33.8844 131.893 34.8459 132.041 35.8503C132.147 36.5329 132.147 37.2276 132.041 37.9102C132.01 38.1599 131.96 38.4069 131.892 38.6492C131.865 38.7553 131.841 38.8536 131.813 38.9401C131.786 39.0266 131.754 39.1052 131.727 39.1759C131.676 39.3096 131.637 39.4118 131.609 39.4904C131.581 39.569 131.562 39.5887 131.558 39.5848Z" fill="#263238"/>
<g opacity="0.3">
<path d="M131.464 39.6362C131.485 39.3434 131.537 39.0537 131.617 38.7713C131.759 38.0038 131.783 37.219 131.688 36.4442C131.616 35.9145 131.485 35.3949 131.294 34.8954C131.086 34.3233 130.804 33.7803 130.457 33.2797C130.269 33.0121 130.062 32.7574 129.84 32.5171C129.609 32.2666 129.358 32.0353 129.089 31.8253C128.813 31.6064 128.52 31.4092 128.213 31.2356C127.896 31.0572 127.566 30.9034 127.226 30.7757C126.885 30.6503 126.536 30.5504 126.18 30.4769C125.849 30.4072 125.512 30.3639 125.174 30.3472C124.504 30.3178 123.834 30.3867 123.185 30.5516C122.074 30.8351 121.049 31.3841 120.197 32.1515C119.617 32.6734 119.121 33.282 118.727 33.9559C118.444 34.4354 118.334 34.7224 118.275 34.7067C118.306 34.4086 118.397 34.1199 118.542 33.8576C118.879 33.1143 119.351 32.4399 119.934 31.8685C120.339 31.4721 120.789 31.1238 121.274 30.8307C121.834 30.4972 122.435 30.2407 123.063 30.0681C123.402 29.9729 123.747 29.9045 124.097 29.8637C124.462 29.8169 124.83 29.7998 125.198 29.8126C125.578 29.827 125.956 29.8703 126.33 29.9423C126.715 30.0181 127.093 30.1246 127.462 30.2607C127.828 30.3999 128.183 30.5668 128.523 30.76C128.854 30.9474 129.169 31.1631 129.463 31.4047C129.744 31.6354 130.007 31.8877 130.249 32.1594C130.485 32.4198 130.701 32.6985 130.894 32.9928C131.574 34.0079 131.981 35.1821 132.073 36.4009C132.137 37.2138 132.053 38.0317 131.825 38.8146C131.764 39.111 131.641 39.3911 131.464 39.6362Z" fill="black"/>
</g>
<g opacity="0.3">
<path d="M124.109 41.1258L123.657 42.2815L122.627 41.8884L123.067 40.7642C122.162 40.3757 121.384 39.741 120.822 38.9323L121.884 37.8985C122.318 38.5351 122.91 39.0484 123.602 39.3883L124.274 37.6705C123.24 36.9433 122.112 36.0588 122.701 34.5847C123.13 33.4918 124.293 32.8668 125.992 33.3189L126.444 32.175L127.474 32.5681L127.033 33.6923C127.754 34.0224 128.386 34.5197 128.877 35.1429L127.847 36.2435C127.475 35.7699 127.011 35.3767 126.483 35.0878L125.795 36.841C126.833 37.5565 127.941 38.4134 127.368 39.8836C126.951 40.9607 125.803 41.5661 124.109 41.1258ZM124.867 36.1649L125.441 34.7026C124.844 34.6122 124.51 34.8244 124.376 35.1664C124.242 35.5084 124.47 35.8504 124.867 36.1649ZM125.654 39.3451C125.795 38.9834 125.571 38.6729 125.19 38.3427L124.643 39.7814C125.202 39.8522 125.536 39.6753 125.665 39.3451H125.654Z" fill="black"/>
</g>
<path d="M111.113 21.7265C110.416 23.4385 109.228 24.9054 107.697 25.9415C106.166 26.9775 104.363 27.5361 102.515 27.5466C100.666 27.5572 98.8566 27.0191 97.3143 26.0005C95.772 24.982 94.5666 23.5287 93.8507 21.8248C93.1347 20.1208 92.9404 18.2427 93.2924 16.4283C93.6443 14.6138 94.5267 12.9446 95.8278 11.6318C97.1289 10.3191 98.7902 9.42192 100.601 9.05383C102.413 8.68574 104.292 8.86331 106.003 9.56405C107.137 10.0271 108.169 10.709 109.039 11.5708C109.91 12.4326 110.602 13.4575 111.077 14.5869C111.551 15.7163 111.799 16.9281 111.805 18.1531C111.811 19.3781 111.576 20.5924 111.113 21.7265Z" fill="#5BFF6F"/>
<path d="M109.057 20.8852C108.527 22.1903 107.621 23.3085 106.454 24.0984C105.288 24.8883 103.913 25.3142 102.504 25.3224C101.095 25.3306 99.7157 24.9206 98.5401 24.1444C97.3644 23.3681 96.4455 22.2605 95.8997 20.9618C95.3538 19.663 95.2056 18.2315 95.4738 16.8484C95.742 15.4654 96.4145 14.193 97.4061 13.1923C98.3978 12.1917 99.6641 11.5078 101.045 11.2272C102.425 10.9465 103.858 11.0819 105.162 11.616C106.026 11.9685 106.813 12.488 107.477 13.1448C108.141 13.8015 108.668 14.5826 109.03 15.4434C109.392 16.3042 109.581 17.2279 109.585 18.1616C109.59 19.0954 109.41 20.0209 109.057 20.8852Z" fill="#5BFF6F"/>
<path d="M109.058 20.8851C109.066 20.8478 109.076 20.8111 109.089 20.775L109.195 20.4527C109.219 20.3819 109.246 20.3033 109.274 20.2168C109.301 20.1303 109.317 20.0281 109.345 19.9259C109.406 19.684 109.452 19.4385 109.482 19.1908C109.578 18.5135 109.57 17.8255 109.459 17.1506C109.307 16.16 108.948 15.2126 108.404 14.3705C107.861 13.5285 107.146 12.8107 106.306 12.2644C104.953 11.4103 103.355 11.0275 101.762 11.1755C101.593 11.1755 101.428 11.2266 101.258 11.2541C101.087 11.2778 100.918 11.3132 100.751 11.3603C100.413 11.4482 100.081 11.5572 99.7568 11.6865C99.4305 11.8291 99.114 11.9932 98.8095 12.1779C98.1803 12.5537 97.6172 13.0305 97.1427 13.5891C96.1477 14.7375 95.5567 16.1806 95.4603 17.697C95.4097 18.429 95.4774 19.1643 95.6607 19.8748C95.7465 20.2203 95.8568 20.5592 95.9909 20.889C96.1308 21.2101 96.2923 21.5214 96.4744 21.8206C96.6515 22.1129 96.8486 22.3927 97.0641 22.6579C97.2808 22.9132 97.5132 23.1548 97.7599 23.3812C98.6946 24.2262 99.8367 24.8082 101.07 25.0676C102.05 25.2681 103.061 25.26 104.038 25.044C105.014 24.8279 105.934 24.4087 106.738 23.8137C107.29 23.409 107.777 22.924 108.185 22.3749C108.337 22.1772 108.476 21.9697 108.602 21.7538C108.657 21.6595 108.712 21.5769 108.755 21.4983L108.865 21.2742L109.014 20.9715C109.05 20.9008 109.069 20.8693 109.069 20.8693C109.059 20.9058 109.046 20.9413 109.03 20.9755L108.892 21.286L108.79 21.514C108.747 21.5966 108.692 21.6831 108.637 21.7774C108.523 21.9986 108.392 22.2102 108.244 22.4103C107.841 22.9709 107.354 23.4666 106.801 23.8805C105.99 24.4919 105.058 24.9246 104.068 25.1503C103.077 25.3759 102.05 25.3892 101.054 25.1895C99.7982 24.9305 98.634 24.3416 97.6813 23.4834C97.4271 23.2541 97.1881 23.0086 96.9658 22.7483C96.7463 22.4779 96.5454 22.1929 96.3644 21.8953C96.1784 21.5896 96.0129 21.2718 95.8691 20.944C95.7323 20.6077 95.6194 20.2623 95.531 19.9102C95.3429 19.1858 95.2726 18.4359 95.3227 17.6892C95.3797 16.9205 95.5534 16.165 95.8376 15.4485C96.1376 14.7366 96.5431 14.074 97.0405 13.483C97.5268 12.9139 98.1016 12.4268 98.7426 12.0403C99.3557 11.6594 100.026 11.3794 100.728 11.2109C100.897 11.163 101.069 11.1262 101.243 11.1008C101.416 11.0772 101.589 11.0419 101.758 11.0261C102.097 10.9948 102.439 10.987 102.78 11.0026C104.062 11.0567 105.307 11.453 106.385 12.1504C107.236 12.7043 107.96 13.4331 108.509 14.2884C109.057 15.1438 109.417 16.1061 109.565 17.1113C109.672 17.7937 109.672 18.4887 109.565 19.1712C109.534 19.4196 109.484 19.6654 109.415 19.9062C109.388 20.0124 109.364 20.1107 109.337 20.2011L109.25 20.433C109.198 20.5666 109.158 20.6728 109.132 20.7514C109.115 20.7996 109.089 20.8448 109.058 20.8851Z" fill="#263238"/>
<g opacity="0.3">
<path d="M108.974 20.932C108.996 20.6406 109.048 20.3521 109.128 20.0711C109.272 19.3037 109.296 18.5186 109.198 17.7439C109.059 16.6062 108.643 15.5199 107.988 14.5795C107.801 14.3104 107.595 14.0555 107.371 13.8169C107.139 13.5664 106.888 13.335 106.62 13.125C106.344 12.904 106.051 12.7055 105.743 12.5314C105.425 12.3554 105.096 12.2017 104.756 12.0715C104.416 11.9474 104.066 11.8488 103.711 11.7767C103.365 11.7066 103.014 11.6633 102.661 11.647C102.32 11.633 101.978 11.6448 101.639 11.6823C101.313 11.7153 100.99 11.7732 100.672 11.8553C100.082 12.0042 99.514 12.2288 98.9818 12.5236C98.5168 12.7846 98.0819 13.0957 97.6846 13.4513C97.105 13.9754 96.6092 14.5852 96.2144 15.2595C96.09 15.5239 95.9399 15.7754 95.7662 16.0104C95.7917 15.7116 95.8815 15.422 96.0296 15.1613C96.3666 14.4179 96.8384 13.7435 97.4212 13.1722C98.5504 12.0611 100.015 11.3549 101.588 11.1634C101.953 11.1199 102.321 11.1042 102.689 11.1163C103.069 11.1286 103.448 11.172 103.821 11.246C104.206 11.3218 104.585 11.4283 104.953 11.5644C105.319 11.7036 105.674 11.8705 106.014 12.0636C106.345 12.2511 106.659 12.4654 106.954 12.7044C107.513 13.1536 108.002 13.6836 108.404 14.2768C108.763 14.8199 109.049 15.4081 109.253 16.0261C109.429 16.5641 109.54 17.1209 109.584 17.685C109.65 18.4992 109.566 19.3187 109.336 20.1025C109.279 20.4025 109.155 20.6859 108.974 20.932Z" fill="black"/>
</g>
<g opacity="0.3">
<path d="M101.588 22.4258L101.136 23.5776L100.106 23.1845L100.546 22.0642C99.6423 21.6745 98.8649 21.04 98.3019 20.2324L99.3632 19.1946C99.792 19.8415 100.383 20.3647 101.077 20.7119L101.749 18.9902C100.716 18.2629 99.5873 17.3824 100.177 15.9083C100.605 14.8154 101.769 14.1904 103.467 14.6425L103.919 13.4986L104.949 13.8917L104.513 15.0159C105.234 15.3446 105.866 15.8406 106.356 16.4625L105.346 17.5278C104.971 17.0571 104.506 16.6656 103.978 16.3761L103.29 18.1253C104.328 18.8447 105.437 19.7174 104.863 21.1719C104.446 22.2411 103.298 22.8779 101.588 22.4258ZM102.374 17.4649L102.948 16.0026C102.351 15.9122 102.017 16.1245 101.883 16.4665C101.749 16.8085 101.981 17.1426 102.374 17.4649ZM103.161 20.6451C103.302 20.2835 103.078 19.969 102.697 19.6427L102.139 21.0618C102.697 21.1522 103.031 20.9753 103.161 20.6451Z" fill="black"/>
</g>
<path d="M76.9172 13.8369C77.1675 16.8151 76.5283 19.8005 75.0807 22.4152C73.633 25.0298 71.4419 27.156 68.7849 28.5245C66.128 29.893 63.1247 30.4422 60.1553 30.1025C57.186 29.7628 54.3843 28.5496 52.105 26.6165C49.8257 24.6834 48.1714 22.1173 47.3515 19.2433C46.5317 16.3693 46.5832 13.3166 47.4996 10.4719C48.416 7.62716 50.1559 5.11838 52.4992 3.26327C54.8424 1.40816 57.6835 0.29018 60.6626 0.0509203C62.6351 -0.111638 64.6204 0.11604 66.505 0.720948C68.3896 1.32586 70.1365 2.29614 71.646 3.57637C73.1555 4.8566 74.3979 6.42169 75.3024 8.18222C76.2069 9.94276 76.7556 11.8642 76.9172 13.8369Z" fill="#5BFF6F"/>
<path d="M73.3364 14.1202C73.5274 16.3896 73.0407 18.6646 71.9379 20.6572C70.8351 22.6497 69.1657 24.2702 67.1413 25.3134C65.1169 26.3565 62.8284 26.7755 60.5657 26.5171C58.303 26.2588 56.1679 25.3348 54.4307 23.8621C52.6935 22.3895 51.4324 20.4345 50.8071 18.2446C50.1818 16.0547 50.2204 13.7286 50.918 11.5607C51.6157 9.39277 52.941 7.48066 54.7261 6.06649C56.5112 4.65232 58.6759 3.7997 60.9459 3.61661C62.4492 3.49226 63.9623 3.66534 65.3988 4.12597C66.8352 4.5866 68.1668 5.32575 69.3174 6.30118C70.4681 7.27661 71.4153 8.46921 72.1049 9.81083C72.7945 11.1525 73.2129 12.6168 73.3364 14.1202Z" fill="#5BFF6F"/>
<path d="M73.3375 14.1197C73.3176 14.0611 73.3044 14.0005 73.2982 13.9389C73.2799 13.8053 73.2523 13.6244 73.2156 13.3964C73.2156 13.2785 73.1803 13.1449 73.1567 13.0033C73.1331 12.8618 73.0859 12.7046 73.0466 12.5356C72.962 12.135 72.849 11.7409 72.7085 11.3563C72.3516 10.3116 71.8387 9.32687 71.1872 8.43554C70.2429 7.12172 69.0316 6.02232 67.6327 5.20938C66.2337 4.39644 64.6788 3.88833 63.0697 3.71835C61.0436 3.51333 58.9993 3.84974 57.1457 4.69323C56.6531 4.92327 56.1764 5.18592 55.7188 5.47943C55.4908 5.62881 55.2746 5.79784 55.0466 5.95508C54.8173 6.11397 54.6005 6.29007 54.398 6.48183C53.9736 6.84901 53.5731 7.24291 53.199 7.66113C52.8324 8.10439 52.4962 8.57194 52.1927 9.06056C51.5629 10.0621 51.0983 11.1584 50.8168 12.3076C50.5357 13.4912 50.435 14.7104 50.518 15.9241C50.6266 17.141 50.9209 18.3342 51.3907 19.462C51.8485 20.5535 52.4819 21.5627 53.2658 22.4495C53.643 22.885 54.0502 23.2935 54.4844 23.6721C54.9207 24.031 55.3803 24.3606 55.8603 24.6587C56.3279 24.9562 56.8166 25.2189 57.3226 25.4449C57.8209 25.6568 58.3331 25.8341 58.8557 25.9756C61.4073 26.6766 64.1229 26.4722 66.5409 25.3972C68.9588 24.3223 70.9299 22.4431 72.1189 20.0791C72.6226 19.09 72.9713 18.0294 73.1528 16.9343C73.2326 16.5456 73.2825 16.1514 73.3021 15.755C73.3021 15.5821 73.3336 15.4209 73.3375 15.2755C73.3414 15.13 73.3375 14.9924 73.3375 14.8824C73.3375 14.6504 73.3375 14.4696 73.3375 14.336C73.3314 14.2732 73.3314 14.21 73.3375 14.1473C73.3417 14.2088 73.3417 14.2705 73.3375 14.332C73.3375 14.4696 73.3375 14.6504 73.365 14.8784C73.365 15.0003 73.365 15.1339 73.3847 15.2715C73.4043 15.4091 73.3847 15.5821 73.3572 15.759C73.3453 16.1638 73.3033 16.5672 73.2314 16.9658C73.0611 18.0674 72.7217 19.1362 72.225 20.1342C71.5036 21.6081 70.4767 22.9116 69.2127 23.958C67.9487 25.0045 66.4764 25.77 64.8937 26.2036C62.3461 26.8807 59.6457 26.6927 57.2165 25.669C56.7008 25.4421 56.2017 25.1794 55.7227 24.8828C54.7203 24.2831 53.8238 23.5221 53.0693 22.6303C52.2715 21.7236 51.6239 20.6951 51.1509 19.5838C50.1603 17.2732 49.9613 14.6998 50.5849 12.2643C50.8696 11.0902 51.345 9.97071 51.9922 8.9505C52.3013 8.4511 52.6455 7.97425 53.0221 7.52355C53.403 7.09144 53.8128 6.68562 54.2486 6.30887C54.4551 6.11446 54.6758 5.93576 54.909 5.77425C55.1409 5.61308 55.361 5.44012 55.5969 5.29074C56.0632 4.99346 56.5506 4.73069 57.0553 4.50455C58.9442 3.649 61.0274 3.31379 63.0894 3.53359C64.7215 3.70902 66.2975 4.22987 67.7127 5.0615C69.1279 5.89313 70.3498 7.0165 71.2973 8.35691C71.9471 9.26278 72.4523 10.264 72.795 11.3248C72.9325 11.7088 73.039 12.1031 73.1134 12.5041C73.1527 12.6731 73.1921 12.8343 73.2196 12.9798C73.2471 13.1252 73.251 13.2589 73.2628 13.3729C73.2903 13.6009 73.31 13.766 73.3257 13.9153C73.3361 13.983 73.34 14.0514 73.3375 14.1197Z" fill="#263238"/>
<g opacity="0.3">
<path d="M73.2546 14.25C73.1878 14.25 73.0973 13.7586 72.8615 12.8938C72.5069 11.6848 71.97 10.5368 71.2694 9.48958C70.7844 8.77655 70.2243 8.11762 69.5987 7.52409C68.8778 6.85501 68.0747 6.2804 67.2087 5.8141C66.2554 5.30303 65.2333 4.93232 64.174 4.71343C63.6154 4.59994 63.049 4.52898 62.4797 4.50115C61.8933 4.47785 61.306 4.49756 60.7226 4.56012C60.1399 4.62731 59.5631 4.73768 58.9968 4.89032C58.4478 5.0458 57.9105 5.24023 57.3891 5.47211C56.8857 5.69572 56.4007 5.9586 55.9385 6.25831C55.4929 6.54256 55.0697 6.86059 54.6727 7.2096C53.9248 7.85347 53.264 8.59218 52.7072 9.40703C52.2326 10.1234 51.8371 10.8892 51.5279 11.6909C51.0809 12.8677 50.8158 14.1058 50.7417 15.3625C50.6867 16.2587 50.7103 16.7658 50.6395 16.7737C50.5688 16.7816 50.4509 16.2823 50.3997 15.3585C50.3473 14.0404 50.5378 12.7239 50.9619 11.4747C51.5897 9.60392 52.689 7.92648 54.1538 6.60423C54.5738 6.2197 55.0233 5.86876 55.4983 5.55466C55.9919 5.22306 56.5111 4.93125 57.051 4.68198C57.6092 4.42175 58.1876 4.20746 58.7806 4.04123C59.3908 3.87454 60.0122 3.75236 60.64 3.67565C61.2707 3.61042 61.9053 3.59202 62.5387 3.62061C63.1535 3.65332 63.7647 3.73481 64.3666 3.86433C64.9468 3.9869 65.516 4.1565 66.0687 4.37143C66.6022 4.57236 67.1188 4.81554 67.6136 5.09866C69.3371 6.06141 70.781 7.45523 71.804 9.14365C72.4928 10.267 72.9685 11.5076 73.2074 12.8034C73.3332 13.7311 73.3057 14.2304 73.2546 14.25Z" fill="black"/>
</g>
<g opacity="0.3">
<path d="M63.7096 21.7657L63.9022 23.7588L62.1175 23.9239L61.9367 21.9859C60.1599 22.0488 58.3988 21.6557 57.365 20.9835L58.1512 18.7192C59.2402 19.338 60.4719 19.6618 61.7244 19.6587L61.4453 16.6869C59.4209 16.3921 57.1488 15.9439 56.909 13.4006C56.7281 11.5137 57.9467 9.76836 60.7299 9.18264L60.5451 7.21714L62.3259 7.04811L62.5106 8.99002C63.7916 8.93969 65.0661 9.19433 66.2294 9.73298L65.5454 12.0051C64.6612 11.5965 63.7042 11.3693 62.7308 11.3368L63.0177 14.3598C65.0422 14.6349 67.2789 15.087 67.5148 17.595C67.6799 19.4347 66.477 21.1643 63.7096 21.7657ZM61.1859 14.0728L60.9422 11.5452C60.0184 11.8478 59.696 12.4021 59.7629 12.9878C59.8297 13.5736 60.3761 13.8959 61.1859 14.0728ZM64.657 18.0706C64.598 17.4456 64.0477 17.1586 63.2575 16.9621L63.4894 19.4189C64.3621 19.1359 64.7081 18.6367 64.657 18.0706Z" fill="black"/>
</g>
</svg>
