<svg width="24" height="24" viewBox="0 0 24 24" fill="none" xmlns="http://www.w3.org/2000/svg">
<g clip-path="url(#clip0_39_503)">
<path d="M8.95173 3.85712L9.69227 1.95426C9.81716 1.63208 10.0369 1.35496 10.3227 1.15919C10.6085 0.963426 10.947 0.858137 11.2939 0.857117H12.7061C13.053 0.858137 13.3915 0.963426 13.6773 1.15919C13.9631 1.35496 14.1828 1.63208 14.3077 1.95426L15.0482 3.85712L17.5625 5.29712L19.5947 4.98855C19.9331 4.94283 20.2775 4.99827 20.5842 5.14784C20.8908 5.29741 21.1458 5.53434 21.3169 5.82855L22.0057 7.02855C22.1822 7.32743 22.2637 7.67257 22.2391 8.01841C22.2145 8.36425 22.0851 8.69454 21.868 8.96569L20.6108 10.56V13.44L21.9024 15.0343C22.1196 15.3054 22.2489 15.6357 22.2735 15.9815C22.2981 16.3274 22.2167 16.6725 22.0402 16.9714L21.3513 18.1714C21.1803 18.4656 20.9252 18.7025 20.6187 18.8521C20.312 19.0016 19.9675 19.0572 19.6291 19.0114L17.597 18.7028L15.0827 20.1428L14.3421 22.0457C14.2172 22.3678 13.9975 22.645 13.7117 22.8408C13.426 23.0365 13.0874 23.1418 12.7405 23.1428H11.2939C10.947 23.1418 10.6085 23.0365 10.3227 22.8408C10.0369 22.645 9.81716 22.3678 9.69227 22.0457L8.95173 20.1428L6.43736 18.7028L4.4052 19.0114C4.06683 19.0572 3.72243 19.0016 3.41578 18.8521C3.10915 18.7025 2.85409 18.4656 2.68303 18.1714L1.99416 16.9714C1.81764 16.6725 1.73632 16.3274 1.76091 15.9815C1.7855 15.6357 1.91487 15.3054 2.13194 15.0343L3.38912 13.44V10.56L2.09749 8.96569C1.88043 8.69454 1.75106 8.36425 1.72647 8.01841C1.70187 7.67257 1.7832 7.32743 1.95972 7.02855L2.64859 5.82855C2.81965 5.53434 3.0747 5.29741 3.38134 5.14784C3.68799 4.99827 4.03239 4.94283 4.37076 4.98855L6.40292 5.29712L8.95173 3.85712ZM8.55564 12C8.55564 12.6781 8.75765 13.341 9.13611 13.9048C9.51459 14.4686 10.0525 14.9081 10.6819 15.1676C11.3113 15.4271 12.0038 15.495 12.6719 15.3627C13.3401 15.2304 13.9538 14.9038 14.4355 14.4243C14.9172 13.9448 15.2452 13.3339 15.3781 12.6689C15.511 12.0038 15.4428 11.3144 15.1821 10.6879C14.9215 10.0614 14.48 9.52595 13.9136 9.14922C13.3471 8.77249 12.6812 8.5714 12 8.5714C11.0865 8.5714 10.2104 8.93262 9.56447 9.57561C8.91853 10.2186 8.55564 11.0907 8.55564 12Z" stroke="white" stroke-width="2" stroke-linecap="round" stroke-linejoin="round"/>
</g>
<defs>
<clipPath id="clip0_39_503">
<rect width="24" height="24" fill="white"/>
</clipPath>
</defs>
</svg>
